HIERARCHY
ROOT Hips
{
	OFFSET 0.00000 0.00000 0.00000
	CHANNELS 6 Xposition Yposition Zposition Yrotation Zrotation Xrotation 
	JOINT Lumbar
	{
		OFFSET 0 0 0
		CHANNELS 3 Zrotation Xrotation Yrotation
		JOINT Neck
		{
			OFFSET 0.00 0.2701 0.00
			CHANNELS 3 Zrotation Xrotation Yrotation
			End Site
			{
				OFFSET 0.00 0.1379 0.00
			}
		}
		JOINT RightShoulder
		{
			OFFSET 0.0119 0.2289 0.1181
			CHANNELS 3 Zrotation Xrotation Yrotation
			JOINT RightElbow
			{
				OFFSET 0.00 -0.1475 0.00
				CHANNELS 2 Zrotation Yrotation
				JOINT RightWrist
				{
					OFFSET 0.00 -0.1605 0.00
					CHANNELS 2 Zrotation Xrotation
					End Site
					{
						OFFSET 0.0040 -0.1068 0.0006
					}
				}
			}
		}
		JOINT LeftShoulder
		{
			OFFSET 0.0119 0.2289 -0.1181
			CHANNELS 3 Zrotation Xrotation Yrotation
			JOINT LeftElbow
			{
				OFFSET 0.00 -0.1475 0.00
				CHANNELS 2 Zrotation Yrotation
				JOINT LeftWrist
				{
					OFFSET 0.00 -0.1605 0.00
					CHANNELS 2 Zrotation Xrotation
					End Site
					{
						OFFSET 0.0040 -0.1068 -0.0006
					}
				}
			}
		}
	}
	JOINT RightHip
	{
		OFFSET 0.0316 -0.0424 0.0458
		CHANNELS 3 Zrotation Xrotation Yrotation
		JOINT RightKnee
		{
			OFFSET 0.00 -0.2438 0.00
			CHANNELS 1 Zrotation
			JOINT RightAnkle
			{
				OFFSET 0.00 -0.2449 0.00
				CHANNELS 3 Zrotation Xrotation Yrotation
				End Site
				{
					OFFSET 0.1237 -0.0542 0.0051
				}
			}
		}
	}
	JOINT LeftHip
	{
		OFFSET 0.0316 -0.0424 -0.0458
		CHANNELS 3 Zrotation Xrotation Yrotation
		JOINT LeftKnee
		{
			OFFSET 0.00 -0.2438 0.00
			CHANNELS 1 Zrotation
			JOINT LeftAnkle
			{
				OFFSET 0.00 -0.2449 0.00
				CHANNELS 3 Zrotation Xrotation Yrotation
				End Site
				{
					OFFSET 0.1237 -0.0542 -0.0051
				}
			}
		}
	}
}
MOTION
Frames: 11
Frame Time: 0.02
-0 0.57926 0 181.78133 0 -3.83297 0.86317 3.18826 -7.25473 -38.33894 4.47917 4.32449 -2.68604 -73.18346 -75.75915 20.86693 78.79184 -18.32983 -2.44723 7.31641 61.43323 62.69999 21.97682 -76.61471 -30.5199 2.7689 -2.7838 6.09056 2.9182 -6.6417 -2.47707 -2.77843 -6.67976 -0.62866 3.99816 2.70204 -7.78562 5.15432 1.52057 0.12658
-1e-05 0.57926 -3e-05 181.78351 0 -3.83292 0.85927 3.17586 -7.24654 -38.353 4.47371 4.32275 -2.63844 -73.17022 -75.69609 20.87605 78.73793 -18.3043 -2.45222 7.39734 61.41555 62.60786 21.9606 -76.67123 -30.49412 2.76292 -2.79363 6.095 2.95454 -6.62534 -2.48251 -2.77568 -6.71467 -0.63297 4.00134 2.70071 -7.77834 5.15816 1.52128 0.12277
-3e-05 0.57925 -6e-05 181.78579 0 -3.83285 0.85536 3.16348 -7.23856 -38.36695 4.46816 4.32111 -2.59085 -73.15699 -75.63305 20.88524 78.68416 -18.27905 -2.45708 7.47795 61.39797 62.51612 21.94444 -76.72779 -30.46853 2.7568 -2.80333 6.09938 2.99046 -6.60919 -2.48784 -2.77294 -6.74916 -0.63712 4.00449 2.69918 -7.77128 5.16197 1.52203 0.11906
-4e-05 0.57925 -8e-05 181.78854 0 -3.83274 0.85143 3.15112 -7.23159 -38.38063 4.46219 4.31989 -2.54288 -73.1438 -75.56963 20.8948 78.62992 -18.25474 -2.46117 7.55803 61.38057 62.42509 21.92831 -76.78516 -30.44331 2.74995 -2.81262 6.10359 3.0246 -6.59384 -2.49273 -2.77021 -6.78209 -0.64067 4.00752 2.69655 -7.76511 5.16568 1.52303 0.11596
-5e-05 0.57925 -0.00011 181.78889 0 -3.83286 0.84765 3.13874 -7.21955 -38.39578 4.45842 4.3165 -2.49698 -73.13055 -75.50841 20.90246 78.57755 -18.22554 -2.46901 7.64091 61.36216 62.33035 21.91197 -76.83841 -30.41599 2.74681 -2.82407 6.10878 3.06764 -6.57441 -2.49991 -2.76742 -6.82304 -0.64739 4.01118 2.6994 -7.7543 5.16994 1.52284 0.10989
-6e-05 0.57924 -0.00014 181.79425 0 -3.83248 0.84352 3.12635 -7.21807 -38.40777 4.45002 4.31769 -2.44672 -73.11735 -75.44248 20.9141 78.52172 -18.20665 -2.46916 7.71777 61.34592 62.2435 21.89611 -76.90018 -30.39323 2.73595 -2.83096 6.11184 3.09216 -6.56354 -2.50228 -2.76476 -6.84716 -0.64741 4.01349 2.69091 -7.75327 5.17303 1.52509 0.10993
-3e-05 0.57923 -0.00015 181.81474 0 -3.83079 0.83867 3.114 -7.24817 -38.41136 4.42805 4.33219 -2.38283 -73.10473 -75.3622 20.93757 78.45067 -18.21752 -2.44488 7.77955 61.33538 62.17732 21.88107 -76.98925 -30.38219 2.70168 -2.82492 6.10911 3.06147 -6.57746 -2.49056 -2.76248 -6.82205 -0.62813 4.01213 2.64748 -7.78066 5.17287 1.53493 0.12903
0 0.57922 -0.00015 181.8401 0 -3.82857 0.83339 3.10159 -7.28854 -38.41168 4.40154 4.35122 -2.31476 -73.0921 -75.27731 20.96494 78.37705 -18.23863 -2.41334 7.83495 61.32705 62.11931 21.86662 -77.08635 -30.37591 2.65995 -2.81436 6.10418 3.01277 -6.59978 -2.47413 -2.76033 -6.78037 -0.60218 4.00938 2.59312 -7.81775 5.17155 1.54712 0.15402
3e-05 0.57921 -0.00016 181.86241 0 -3.82654 0.82817 3.08916 -7.32263 -38.41333 4.37756 4.36774 -2.24951 -73.07913 -75.19527 20.99001 78.3083 -18.25419 -2.38725 7.89243 61.31796 62.05811 21.85215 -77.17739 -30.36802 2.62297 -2.80605 6.10024 2.97499 -6.61759 -2.46036 -2.75811 -6.74811 -0.57985 4.00727 2.54623 -7.84942 5.17078 1.55765 0.17481
6e-05 0.5792 -0.00016 181.88818 0 -3.82476 0.82362 3.07702 -7.36342 -38.41575 4.35153 4.38612 -2.18031 -73.06748 -75.11006 21.0173 78.22414 -18.27338 -2.35233 7.95368 61.30797 61.99443 21.83647 -77.27846 -30.35783 2.58033 -2.79683 6.09646 2.92583 -6.63855 -2.44434 -2.75594 -6.70813 -0.55522 4.0052 2.48927 -7.88508 5.16989 1.57054 0.20165
0.0001 0.57919 -0.00016 181.90797 0 -3.82231 0.81744 3.06418 -7.39284 -38.41565 4.32881 4.40174 -2.11846 -73.05327 -75.03038 21.04092 78.17118 -18.28765 -2.33375 8.00519 61.30018 61.93822 21.82364 -77.36072 -30.35353 2.5476 -2.78853 6.09169 2.89588 -6.65468 -2.43195 -2.75371 -6.67996 -0.53356 4.0026 2.45008 -7.9151 5.16903 1.57926 0.21774
